<?xml version="1.0" encoding="utf-8"?>
<!-- Generator: Adobe Illustrator 19.0.0, SVG Export Plug-In . SVG Version: 6.00 Build 0)  -->
<svg version="1.1" id="Layer_1" xmlns="http://www.w3.org/2000/svg" xmlns:xlink="http://www.w3.org/1999/xlink" x="0px" y="0px"
	 viewBox="-88 37.5 105.7 66.2" style="enable-background:new -88 37.5 105.7 66.2;" xml:space="preserve">
<style type="text/css">
	.st0{fill:#3D3D3D;}
	.st1{fill-rule:evenodd;clip-rule:evenodd;fill:#0E85E1;}
	.st2{fill:#0E85E1;}
</style>
<g>
	<g>
		<path class="st0" d="M-55.4,61.8c-0.4-0.1-0.8-0.3-1.2-0.4c-0.5-0.1-0.9-0.2-1.5-0.3c-0.5-0.1-1.1-0.1-1.6-0.1
			c-1.1,0-2.2,0.1-3.2,0.4c-1,0.3-1.8,0.7-2.6,1.3c-0.7,0.6-1.3,1.2-1.7,2c-0.4,0.8-0.6,1.7-0.6,2.7c0,0.7,0.1,1.2,0.2,1.8
			c0.2,0.5,0.4,1,0.7,1.4c0.3,0.4,0.7,0.8,1.1,1.1c0.4,0.3,0.9,0.6,1.4,0.9c-0.5,0.2-0.9,0.5-1.3,0.8c-0.4,0.3-0.7,0.6-1,0.9
			c-0.3,0.3-0.5,0.7-0.7,1c-0.2,0.3-0.3,0.7-0.3,1c0,0.5,0.2,0.9,0.6,1.2c0.4,0.4,0.9,0.7,1.5,0.9c-0.4,0.4-0.9,0.7-1.3,1.1
			c-0.4,0.4-0.8,0.8-1.2,1.1c-0.3,0.4-0.6,0.8-0.8,1.2c-0.2,0.4-0.3,0.8-0.3,1.2c0,0.6,0.2,1.1,0.6,1.5c0.4,0.5,0.9,0.8,1.7,1.2
			c0.7,0.3,1.7,0.6,2.8,0.7c1.1,0.2,2.4,0.3,3.9,0.3c1.7,0,3.1-0.2,4.5-0.5c1.3-0.3,2.4-0.8,3.4-1.3c0.9-0.6,1.6-1.3,2.1-2.1
			c0.5-0.8,0.7-1.7,0.7-2.8c0-0.6-0.1-1.1-0.3-1.6c-0.2-0.5-0.5-0.9-1-1.2c-0.5-0.3-1-0.6-1.8-0.8c-0.7-0.2-1.7-0.3-2.7-0.4
			c-1.2,0-2.2-0.1-3-0.1c-0.8-0.1-1.5-0.1-2.1-0.2c-0.6-0.1-1-0.1-1.3-0.2c-0.3-0.1-0.6-0.1-0.8-0.2c-0.2-0.1-0.3-0.1-0.3-0.2
			c0-0.1-0.1-0.2-0.1-0.3c0-0.3,0.1-0.6,0.2-0.8c0.1-0.3,0.3-0.5,0.5-0.7c0.3,0.1,0.7,0.1,1.1,0.2c0.4,0.1,0.8,0.1,1.1,0.1
			c1.2,0,2.4-0.1,3.4-0.4c1-0.3,1.9-0.7,2.7-1.2c0.7-0.5,1.3-1.2,1.7-2c0.4-0.8,0.6-1.7,0.6-2.7c0-0.6-0.1-1.2-0.2-1.7
			c-0.2-0.5-0.4-1-0.6-1.5h3v-1.9h-5C-54.8,62.1-55.1,61.9-55.4,61.8z M-62.1,79.1c0.5,0.1,1.1,0.1,1.8,0.1c0.7,0,1.4,0.1,2.1,0.1
			c0.7,0,1.5,0,2.2,0c0.5,0,1,0,1.4,0.1c0.4,0.1,0.8,0.2,1.1,0.3c0.3,0.2,0.5,0.3,0.7,0.6c0.2,0.2,0.2,0.5,0.2,0.9
			c0,0.3-0.1,0.7-0.4,1c-0.3,0.3-0.7,0.6-1.3,0.9c-0.6,0.3-1.2,0.5-2,0.6c-0.8,0.2-1.7,0.2-2.7,0.2c-0.9,0-1.7-0.1-2.4-0.2
			c-0.7-0.1-1.3-0.3-1.7-0.6c-0.5-0.2-0.8-0.5-1.1-0.8c-0.2-0.3-0.4-0.6-0.4-1c0-0.4,0.1-0.9,0.3-1.3c0.2-0.5,0.5-0.8,0.8-1.2
			C-63,79-62.6,79.1-62.1,79.1z M-56.9,69.7c-0.2,0.5-0.4,0.9-0.6,1.3c-0.3,0.4-0.6,0.7-0.9,0.9c-0.3,0.2-0.7,0.3-1.1,0.3
			c-0.5,0-0.9-0.1-1.3-0.4c-0.4-0.3-0.7-0.7-1-1.2c-0.3-0.5-0.5-1.1-0.6-1.7c-0.1-0.6-0.2-1.3-0.2-2.1c0-0.6,0-1.2,0.1-1.7
			c0.1-0.5,0.2-1,0.5-1.4c0.2-0.4,0.5-0.7,0.8-1c0.3-0.2,0.7-0.4,1.1-0.4c0.5,0,0.9,0.1,1.3,0.4c0.4,0.3,0.8,0.7,1.1,1.2
			c0.3,0.5,0.6,1.1,0.7,1.8c0.2,0.7,0.3,1.4,0.3,2.2C-56.6,68.7-56.7,69.2-56.9,69.7z M-33.6,73.6c-0.3,0.5-0.7,0.9-1.2,1.3
			c-0.4,0.4-0.9,0.7-1.5,0.9c-0.5,0.2-1.1,0.3-1.6,0.3c-0.6,0-1.2-0.2-1.7-0.6c-0.5-0.4-1-1-1.4-1.7c-0.4-0.7-0.7-1.5-0.9-2.4
			c-0.2-0.9-0.4-1.9-0.4-2.9h11.3c0-1.1-0.2-2.1-0.6-3c-0.4-0.9-0.9-1.8-1.6-2.5c-0.7-0.7-1.5-1.3-2.4-1.7c-0.9-0.4-2-0.6-3.1-0.6
			c-1.3,0-2.4,0.3-3.5,0.8c-1,0.5-1.9,1.2-2.7,2.1c-0.7,0.9-1.3,2-1.7,3.2c-0.4,1.2-0.6,2.6-0.6,4c0,1.2,0.2,2.3,0.7,3.4
			c0.4,1.1,1,2,1.8,2.8c0.8,0.8,1.7,1.5,2.7,1.9c1,0.5,2.1,0.7,3.3,0.7c0.9,0,1.8-0.2,2.7-0.6c0.9-0.4,1.7-0.9,2.5-1.5
			c0.8-0.6,1.4-1.4,2-2.3c0.6-0.9,1-1.8,1.2-2.8l-2.5-0.4C-33.1,72.6-33.3,73.1-33.6,73.6z M-41.9,65.1c0.2-0.4,0.4-0.8,0.6-1.1
			c0.2-0.3,0.5-0.6,0.8-0.7c0.3-0.2,0.6-0.3,0.9-0.3c0.4,0,0.8,0.1,1.1,0.3c0.3,0.2,0.6,0.4,0.9,0.7c0.3,0.3,0.5,0.7,0.6,1.1
			c0.2,0.4,0.3,0.9,0.3,1.5h-5.6C-42.2,66-42.1,65.5-41.9,65.1z M-13.8,62.3c-0.5-0.5-1-0.9-1.6-1.2c-0.6-0.3-1.2-0.4-1.9-0.4
			c-0.9,0-1.7,0.1-2.6,0.4c-0.9,0.3-1.7,0.7-2.5,1.4V61h-5v18.2h5V65.9c0.3-0.3,0.6-0.6,0.9-0.8c0.3-0.2,0.6-0.5,0.9-0.6
			c0.3-0.2,0.6-0.3,0.9-0.4c0.3-0.1,0.5-0.1,0.7-0.1s0.4,0.1,0.6,0.2c0.2,0.1,0.4,0.3,0.5,0.6c0.2,0.2,0.3,0.5,0.4,0.9
			c0.1,0.4,0.1,0.8,0.1,1.2v12.4h5v-13c0-0.8-0.1-1.5-0.4-2.2C-13,63.4-13.3,62.8-13.8,62.3z M-8.1,79.2h5V60.5l-5,1.5V79.2z
			 M14.4,72c-0.2,0.5-0.4,1.1-0.7,1.5c-0.3,0.5-0.7,0.9-1.2,1.3c-0.4,0.4-0.9,0.7-1.5,0.9C10.6,75.9,10,76,9.5,76
			c-0.6,0-1.2-0.2-1.7-0.6c-0.5-0.4-1-1-1.4-1.7C6,73,5.7,72.2,5.5,71.3s-0.4-1.9-0.4-2.9h11.3c0-1.1-0.2-2.1-0.6-3
			c-0.4-0.9-0.9-1.8-1.6-2.5c-0.7-0.7-1.5-1.3-2.4-1.7c-0.9-0.4-2-0.6-3.1-0.6c-1.3,0-2.4,0.3-3.5,0.8c-1,0.5-1.9,1.2-2.7,2.1
			c-0.7,0.9-1.3,2-1.7,3.2c-0.4,1.2-0.6,2.6-0.6,4c0,1.2,0.2,2.3,0.7,3.4c0.4,1.1,1,2,1.8,2.8c0.8,0.8,1.7,1.5,2.7,1.9
			c1,0.5,2.1,0.7,3.3,0.7c0.9,0,1.8-0.2,2.7-0.6c0.9-0.4,1.7-0.9,2.5-1.5c0.8-0.6,1.4-1.4,2-2.3c0.6-0.9,1-1.8,1.2-2.8L14.4,72z
			 M5.5,65.1c0.2-0.4,0.4-0.8,0.6-1.1c0.2-0.3,0.5-0.6,0.8-0.7C7.2,63,7.5,63,7.8,63c0.4,0,0.8,0.1,1.1,0.3c0.3,0.2,0.6,0.4,0.9,0.7
			c0.3,0.3,0.5,0.7,0.6,1.1s0.3,0.9,0.3,1.5H5.1C5.2,66,5.3,65.5,5.5,65.1z"/>
	</g>
</g>
<path class="st1" d="M-2.3,50.5c1.5,0,2.7,0.8,2.7,2.1c0,3.4-2.9,6.8-7.3,7c0.9-1.4,1.8-3.4,1.8-7.1C-5,51.4-3.8,50.5-2.3,50.5z"/>
<path class="st2" d="M-75.9,78.8c0.9-0.4,1.7-0.9,2.5-1.5c0.8-0.6,1.4-1.4,2-2.3c0.6-0.9,1-1.8,1.2-2.8l-2.5-0.4
	c-0.2,0.5-0.4,1.1-0.7,1.5c-0.3,0.5-0.7,0.9-1.2,1.3c-0.4,0.4-0.9,0.7-1.5,0.9c-0.5,0.2-1.1,0.3-1.6,0.3c-0.6,0-1.2-0.2-1.7-0.6
	c-0.5-0.4-1-1-1.4-1.7c-0.4-0.7-0.7-1.5-0.9-2.4c-0.2-0.9-0.4-1.9-0.4-2.9l11.3,0c0-1.1-0.2-2.1-0.6-3c-0.4-0.9-0.9-1.8-1.6-2.5
	c-0.7-0.7-1.5-1.3-2.4-1.7c-0.9-0.4-2-0.6-3.1-0.6c-1.3,0-2.4,0.3-3.5,0.8c-1,0.5-1.9,1.2-2.7,2.1c-0.7,0.9-1.3,2-1.7,3.2
	c-0.4,1.2-0.6,2.6-0.6,4c0,1.2,0.2,2.3,0.7,3.4c0.4,1.1,1,2,1.8,2.8c0.8,0.8,1.7,1.5,2.7,1.9c1,0.5,2.1,0.7,3.3,0.7
	C-77.7,79.3-76.8,79.2-75.9,78.8z M-82.1,66.3c0.1-0.5,0.2-1,0.3-1.5c0.2-0.4,0.4-0.8,0.6-1.1c0.2-0.3,0.5-0.6,0.8-0.7
	c0.3-0.2,0.6-0.3,0.9-0.3c0.4,0,0.8,0.1,1.1,0.3c0.3,0.2,0.6,0.4,0.9,0.7c0.3,0.3,0.5,0.7,0.6,1.1c0.2,0.4,0.3,0.9,0.3,1.5
	L-82.1,66.3z"/>
</svg>
