<?xml version="1.0" encoding="utf-8"?>
<!-- Generator: Adobe Illustrator 19.0.0, SVG Export Plug-In . SVG Version: 6.00 Build 0)  -->
<svg version="1.1" id="Layer_1" xmlns="http://www.w3.org/2000/svg" xmlns:xlink="http://www.w3.org/1999/xlink" x="0px" y="0px"
	 viewBox="-88 37.5 105.7 66.2" style="enable-background:new -88 37.5 105.7 66.2;" xml:space="preserve">
<style type="text/css">
	.st0{fill:#A1A1A1;}
	.st1{fill:#0E85E1;}
</style>
<g>
	<g>
		<path class="st0" d="M-55.6,63.2c-0.4-0.1-0.8-0.3-1.2-0.4c-0.5-0.1-0.9-0.2-1.5-0.3c-0.5-0.1-1.1-0.1-1.6-0.1
			c-1.1,0-2.2,0.1-3.2,0.4c-1,0.3-1.8,0.7-2.6,1.3c-0.7,0.6-1.3,1.2-1.7,2c-0.4,0.8-0.6,1.7-0.6,2.7c0,0.7,0.1,1.2,0.2,1.8
			c0.2,0.5,0.4,1,0.7,1.4c0.3,0.4,0.7,0.8,1.1,1.1c0.4,0.3,0.9,0.6,1.4,0.9c-0.5,0.2-0.9,0.5-1.3,0.8s-0.7,0.6-1,0.9s-0.5,0.7-0.7,1
			s-0.3,0.7-0.3,1c0,0.5,0.2,0.9,0.6,1.2c0.4,0.4,0.9,0.7,1.5,0.9c-0.4,0.4-0.9,0.7-1.3,1.1s-0.8,0.8-1.2,1.1
			c-0.3,0.4-0.6,0.8-0.8,1.2c-0.2,0.4-0.3,0.8-0.3,1.2c0,0.6,0.2,1.1,0.6,1.5c0.4,0.5,0.9,0.8,1.7,1.2c0.7,0.3,1.7,0.6,2.8,0.7
			c1.1,0.2,2.4,0.3,3.9,0.3c1.7,0,3.1-0.2,4.5-0.5c1.3-0.3,2.4-0.8,3.4-1.3c0.9-0.6,1.6-1.3,2.1-2.1c0.5-0.8,0.7-1.7,0.7-2.8
			c0-0.6-0.1-1.1-0.3-1.6s-0.5-0.9-1-1.2c-0.5-0.3-1-0.6-1.8-0.8c-0.7-0.2-1.7-0.3-2.7-0.4c-1.2,0-2.2-0.1-3-0.1
			c-0.8-0.1-1.5-0.1-2.1-0.2s-1-0.1-1.3-0.2s-0.6-0.1-0.8-0.2s-0.3-0.1-0.3-0.2s-0.1-0.2-0.1-0.3c0-0.3,0.1-0.6,0.2-0.8
			c0.1-0.3,0.3-0.5,0.5-0.7c0.3,0.1,0.7,0.1,1.1,0.2c0.4,0.1,0.8,0.1,1.1,0.1c1.2,0,2.4-0.1,3.4-0.4s1.9-0.7,2.7-1.2
			c0.7-0.5,1.3-1.2,1.7-2s0.6-1.7,0.6-2.7c0-0.6-0.1-1.2-0.2-1.7c-0.2-0.5-0.4-1-0.6-1.5h3v-1.9h-5C-55,63.5-55.3,63.3-55.6,63.2z
			 M-62.3,80.5c0.5,0.1,1.1,0.1,1.8,0.1s1.4,0.1,2.1,0.1c0.7,0,1.5,0,2.2,0c0.5,0,1,0,1.4,0.1s0.8,0.2,1.1,0.3
			c0.3,0.2,0.5,0.3,0.7,0.6c0.2,0.2,0.2,0.5,0.2,0.9c0,0.3-0.1,0.7-0.4,1c-0.3,0.3-0.7,0.6-1.3,0.9s-1.2,0.5-2,0.6
			c-0.8,0.2-1.7,0.2-2.7,0.2c-0.9,0-1.7-0.1-2.4-0.2s-1.3-0.3-1.7-0.6c-0.5-0.2-0.8-0.5-1.1-0.8c-0.2-0.3-0.4-0.6-0.4-1
			s0.1-0.9,0.3-1.3c0.2-0.5,0.5-0.8,0.8-1.2C-63.2,80.4-62.8,80.5-62.3,80.5z M-57.1,71.1c-0.2,0.5-0.4,0.9-0.6,1.3
			c-0.3,0.4-0.6,0.7-0.9,0.9c-0.3,0.2-0.7,0.3-1.1,0.3c-0.5,0-0.9-0.1-1.3-0.4c-0.4-0.3-0.7-0.7-1-1.2s-0.5-1.1-0.6-1.7
			s-0.2-1.3-0.2-2.1c0-0.6,0-1.2,0.1-1.7s0.2-1,0.5-1.4c0.2-0.4,0.5-0.7,0.8-1c0.3-0.2,0.7-0.4,1.1-0.4c0.5,0,0.9,0.1,1.3,0.4
			c0.4,0.3,0.8,0.7,1.1,1.2s0.6,1.1,0.7,1.8c0.2,0.7,0.3,1.4,0.3,2.2C-56.8,70.1-56.9,70.6-57.1,71.1z M-33.8,75
			c-0.3,0.5-0.7,0.9-1.2,1.3c-0.4,0.4-0.9,0.7-1.5,0.9c-0.5,0.2-1.1,0.3-1.6,0.3c-0.6,0-1.2-0.2-1.7-0.6s-1-1-1.4-1.7
			s-0.7-1.5-0.9-2.4s-0.4-1.9-0.4-2.9h11.3c0-1.1-0.2-2.1-0.6-3s-0.9-1.8-1.6-2.5c-0.7-0.7-1.5-1.3-2.4-1.7s-2-0.6-3.1-0.6
			c-1.3,0-2.4,0.3-3.5,0.8c-1,0.5-1.9,1.2-2.7,2.1c-0.7,0.9-1.3,2-1.7,3.2s-0.6,2.6-0.6,4c0,1.2,0.2,2.3,0.7,3.4
			c0.4,1.1,1,2,1.8,2.8s1.7,1.5,2.7,1.9c1,0.5,2.1,0.7,3.3,0.7c0.9,0,1.8-0.2,2.7-0.6s1.7-0.9,2.5-1.5s1.4-1.4,2-2.3
			c0.6-0.9,1-1.8,1.2-2.8l-2.5-0.4C-33.3,74-33.5,74.5-33.8,75z M-42.1,66.5c0.2-0.4,0.4-0.8,0.6-1.1c0.2-0.3,0.5-0.6,0.8-0.7
			c0.3-0.2,0.6-0.3,0.9-0.3c0.4,0,0.8,0.1,1.1,0.3c0.3,0.2,0.6,0.4,0.9,0.7c0.3,0.3,0.5,0.7,0.6,1.1c0.2,0.4,0.3,0.9,0.3,1.5h-5.6
			C-42.4,67.4-42.3,66.9-42.1,66.5z M-14,63.7c-0.5-0.5-1-0.9-1.6-1.2c-0.6-0.3-1.2-0.4-1.9-0.4c-0.9,0-1.7,0.1-2.6,0.4
			c-0.9,0.3-1.7,0.7-2.5,1.4v-1.5h-5v18.2h5V67.3c0.3-0.3,0.6-0.6,0.9-0.8c0.3-0.2,0.6-0.5,0.9-0.6c0.3-0.2,0.6-0.3,0.9-0.4
			s0.5-0.1,0.7-0.1s0.4,0.1,0.6,0.2s0.4,0.3,0.5,0.6c0.2,0.2,0.3,0.5,0.4,0.9s0.1,0.8,0.1,1.2v12.4h5v-13c0-0.8-0.1-1.5-0.4-2.2
			C-13.2,64.8-13.5,64.2-14,63.7z M-8.3,80.6h5V61.9l-5,1.5V80.6z M14.2,73.4c-0.2,0.5-0.4,1.1-0.7,1.5c-0.3,0.5-0.7,0.9-1.2,1.3
			c-0.4,0.4-0.9,0.7-1.5,0.9c-0.4,0.2-1,0.3-1.5,0.3c-0.6,0-1.2-0.2-1.7-0.6s-1-1-1.4-1.7s-0.7-1.5-0.9-2.4s-0.4-1.9-0.4-2.9h11.3
			c0-1.1-0.2-2.1-0.6-3S14.7,65,14,64.3c-0.7-0.7-1.5-1.3-2.4-1.7S9.6,62,8.5,62c-1.3,0-2.4,0.3-3.5,0.8c-1,0.5-1.9,1.2-2.7,2.1
			c-0.7,0.9-1.3,2-1.7,3.2S0,70.7,0,72.1c0,1.2,0.2,2.3,0.7,3.4c0.4,1.1,1,2,1.8,2.8s1.7,1.5,2.7,1.9c1,0.5,2.1,0.7,3.3,0.7
			c0.9,0,1.8-0.2,2.7-0.6s1.7-0.9,2.5-1.5s1.4-1.4,2-2.3c0.6-0.9,1-1.8,1.2-2.8L14.2,73.4z M5.3,66.5c0.2-0.4,0.4-0.8,0.6-1.1
			c0.2-0.3,0.5-0.6,0.8-0.7c0.3-0.3,0.6-0.3,0.9-0.3c0.4,0,0.8,0.1,1.1,0.3c0.3,0.2,0.6,0.4,0.9,0.7c0.3,0.3,0.5,0.7,0.6,1.1
			s0.3,0.9,0.3,1.5H4.9C5,67.4,5.1,66.9,5.3,66.5z"/>
	</g>
</g>
<path class="st1" d="M25.2,51.1c1.5,0,2.7,0.8,2.7,2.1c0,3.4-2.9,6.8-7.3,7c0.9-1.4,1.8-3.4,1.8-7.1C22.5,52,23.7,51.1,25.2,51.1z"
	/>
<path class="st1" d="M-76.1,80.2c0.9-0.4,1.7-0.9,2.5-1.5s1.4-1.4,2-2.3s1-1.8,1.2-2.8l-2.5-0.4c-0.2,0.5-0.4,1.1-0.7,1.5
	c-0.3,0.5-0.7,0.9-1.2,1.3c-0.4,0.4-0.9,0.7-1.5,0.9c-0.5,0.2-1.1,0.3-1.6,0.3c-0.6,0-1.2-0.2-1.7-0.6s-1-1-1.4-1.7
	s-0.7-1.5-0.9-2.4c-0.2-0.9-0.4-1.9-0.4-2.9H-71c0-1.1-0.2-2.1-0.6-3s-0.9-1.8-1.6-2.5c-0.7-0.7-1.5-1.3-2.4-1.7s-2-0.6-3.1-0.6
	c-1.3,0-2.4,0.3-3.5,0.8c-1,0.5-1.9,1.2-2.7,2.1c-0.7,0.9-1.3,2-1.7,3.2c-0.4,1.2-0.6,2.6-0.6,4c0,1.2,0.2,2.3,0.7,3.4
	c0.4,1.1,1,2,1.8,2.8S-83,79.6-82,80c1,0.5,2.1,0.7,3.3,0.7C-77.9,80.7-77,80.6-76.1,80.2z M-82.3,67.7c0.1-0.5,0.2-1,0.3-1.5
	c0.2-0.4,0.4-0.8,0.6-1.1c0.2-0.3,0.5-0.6,0.8-0.7c0.3-0.2,0.6-0.3,0.9-0.3c0.4,0,0.8,0.1,1.1,0.3c0.3,0.2,0.6,0.4,0.9,0.7
	s0.5,0.7,0.6,1.1c0.2,0.4,0.3,0.9,0.3,1.5H-82.3z"/>
<path class="st1" d="M0,55.2c0-1.6-1.3-2.9-2.9-2.9s-2.9,1.3-2.9,2.9c0,0.8,0.3,1.6,0.9,2.1c0.1,0.2,0.1,0.4,0.1,0.6
	c0.1,1.1-0.6,1.3-1.2,1.4c-0.5,0.1-0.7,0.7-0.7,1.4c0,0.6,0.1,0.7,0.7,1.4c0-0.8-0.1-0.8-0.1-1.4c0-0.5,0.4-0.8,0.6-0.9
	c1.3-0.4,1.6-0.4,2.3-1.3c0.6-0.7,1.8-0.5,2.5-1.2C0.1,56.5,0,55.9,0,55.2z"/>
</svg>
