<?xml version="1.0" encoding="utf-8"?>
<!-- Generator: Adobe Illustrator 19.0.0, SVG Export Plug-In . SVG Version: 6.00 Build 0)  -->
<svg version="1.1" id="Layer_1" xmlns="http://www.w3.org/2000/svg" xmlns:xlink="http://www.w3.org/1999/xlink" x="0px" y="0px"
	 viewBox="0 0 283.5 141.7" style="enable-background:new 0 0 283.5 141.7;" xml:space="preserve">
<style type="text/css">
	.st0{fill:#B4B4B4;}
</style>
<path id="XMLID_58_" class="st0" d="M105.9,79.1v51.6h82V79.1H105.9z M183.3,123.7h-72.6V83.8h72.6V123.7z"/>
<path id="XMLID_39_" class="st0" d="M152.3,136.7c-1-0.9-1.5-1.9-1.5-3c0-0.6,0.2-1.2,0.5-1.8H148h-0.1h-3.4
	c0.3,0.6,0.5,1.1,0.5,1.8c0,1.1-0.6,2.2-1.5,3c-12.3,0.1-21.9,1.2-21.9,2.6s13.6,1.4,26.3,1.4s26.3,0,26.3-1.4
	S164.6,136.7,152.3,136.7z"/>
<g id="XMLID_62_">
	<rect id="XMLID_175_" x="137.1" y="15.6" class="st0" width="2.5" height="4.6"/>
	<circle id="XMLID_177_" class="st0" cx="163.2" cy="44.2" r="2.8"/>
	<path id="XMLID_195_" class="st0" d="M146.2,0.7c-17.3,0-31.2,14-31.2,31.2c0,14.1,9.4,26.1,22.3,29.8l9.7,16.4l10-17.2
		c11.8-4.2,20.3-15.7,20.3-29.1C177.3,14.7,163.4,0.7,146.2,0.7z M167.4,49.1c-1.6,1.6-5.2,2.5-6.8,1l-20.9-24.9
		c-1.6,1.3-3.7,2.2-6,2.2c-4.5,0-8.1-3-9.2-7.2h10v-4.6h-9.9c1.1-4,4.7-7,9.1-7c5.2,0,9.4,4.2,9.4,9.4c0,0.5,0,1-0.1,1.6l26.2,22.1
		c1.6,1.6,0.6,5.2-1,6.8L167.4,49.1z"/>
</g>
</svg>
