<?xml version="1.0" encoding="utf-8"?>
<!-- Generator: Adobe Illustrator 19.0.0, SVG Export Plug-In . SVG Version: 6.00 Build 0)  -->
<svg version="1.1" id="Layer_1" xmlns="http://www.w3.org/2000/svg" xmlns:xlink="http://www.w3.org/1999/xlink" x="0px" y="0px"
	 viewBox="0 0 283.5 141.7" style="enable-background:new 0 0 283.5 141.7;" xml:space="preserve">
<style type="text/css">
	.st0{fill:#B4B4B4;}
</style>
<g id="XMLID_200_">
	<path id="XMLID_201_" class="st0" d="M142.9,132.9c-1.9-1.7-3-3.7-3-6c0-1.2,0.3-2.4,0.9-3.4h-6.4h-0.2h-6.4
		c0.6,1.1,0.9,2.2,0.9,3.4c0,2.2-1.1,4.3-3,6c-23.7,0.2-42.5,2.4-42.5,5.1c0,2.7,26.3,2.7,51.1,2.7c24.7,0,51.1,0.1,51.1-2.7
		C185.4,135.3,166.6,133.1,142.9,132.9z"/>
	<polygon id="XMLID_253_" class="st0" points="202.8,107.8 61.8,107.8 61.8,30.4 179,30.4 188.2,21.2 52.8,21.2 52.8,121.4 
		211.8,121.4 211.8,47.8 202.8,56.8 	"/>
	
		<rect id="XMLID_254_" x="190.8" y="0.9" transform="matrix(-0.7071 -0.7071 0.7071 -0.7071 313.7678 202.2272)" class="st0" width="16" height="70.5"/>
	<path id="XMLID_255_" class="st0" d="M232.3,2.6c-4.8-4.8-9.4-1.8-12.5,1.3L231,15.1C234.1,11.9,236.9,7.1,232.3,2.6z"/>
	<polygon id="XMLID_257_" class="st0" points="167,57 158.5,77.5 178,68 	"/>
</g>
</svg>
