<?xml version="1.0" encoding="utf-8"?>
<!-- Generator: Adobe Illustrator 19.0.0, SVG Export Plug-In . SVG Version: 6.00 Build 0)  -->
<svg version="1.1" id="Layer_1" xmlns="http://www.w3.org/2000/svg" xmlns:xlink="http://www.w3.org/1999/xlink" x="0px" y="0px"
	 viewBox="0 0 283.5 141.7" style="enable-background:new 0 0 283.5 141.7;" xml:space="preserve">
<style type="text/css">
	.st0{fill:#B4B4B4;}
</style>
<path id="XMLID_271_" class="st0" d="M236.3,8.6l-37.5,30.6V2.9h-92.8v41.4h-3V2.9H83.3v36.4L45.8,8.6l-9.7,11.9l42,34.3v84.9H204
	V54.8l42-34.3L236.3,8.6z M121.5,43.4c0-14.1,9.8-25.9,23-29V8.5h13.7v5.9c13.2,3.1,23,14.9,23,29c0,0.3,0,0.6-0.1,0.9h-7.3
	c0-0.3,0.1-0.6,0.1-0.9c0-12.5-10.1-22.6-22.6-22.6c-12.5,0-22.6,10.1-22.6,22.6c0,0.3,0,0.6,0.1,0.9h-7.3
	C121.6,44,121.5,43.7,121.5,43.4z M168.9,44.2h-13.5V26.2C163.2,28,169,35,169,43.3C169,43.6,168.9,43.9,168.9,44.2z M93.2,9
	c3.2,0,5.8,2.6,5.8,5.8c0,3.2-2.6,5.8-5.8,5.8c-3.2,0-5.8-2.6-5.8-5.8C87.4,11.6,90,9,93.2,9z M198.8,52.4v82.2H83.3V52.4L43.3,19.8
	l3.2-3.9l41.1,33.5h106.9l41.1-33.5l3.2,3.9L198.8,52.4z"/>
</svg>
