<?xml version="1.0" encoding="utf-8"?>
<!-- Generator: Adobe Illustrator 19.0.0, SVG Export Plug-In . SVG Version: 6.00 Build 0)  -->
<svg version="1.1" id="Layer_1" xmlns="http://www.w3.org/2000/svg" xmlns:xlink="http://www.w3.org/1999/xlink" x="0px" y="0px"
	 viewBox="-121 50.5 40.2 40.2" style="enable-background:new -121 50.5 40.2 40.2;" xml:space="preserve">
<style type="text/css">
	.st0{fill:#0E85E1;}
</style>
<g id="XMLID_208_">
	<path id="XMLID_297_" class="st0" d="M-81.5,76.1c0-0.5,0-0.2,0-1.9c0-2.1-0.8-3-1.8-3.9c-0.8-0.8-2.4-0.9-3.2-0.9
		c-0.8,0-1.3-0.7-1.9-1.2c-1.3-1.3-6.3-6.7-6.9-7.1c-0.6-0.4-0.6-0.8-2.9-0.9c-1.1,0-18.9,0-19.4,0c-1.4,0-2.4,0.8-2.4,2.7
		c0,1.3,0,10.1,0,12.6c0,0.9,0.6,0.8,1.3,1c0,0,0.4,0,1.1,0.1c0,0,0,0,0,0c0-2.5,2-4.5,4.5-4.5c2.5,0,4.5,2,4.5,4.5
		c0,0.2,0,0.6,0,0.8c2.3,0,13.6,0,16.4,0c0-0.3-0.1-0.5-0.1-0.8c0-2.5,2-4.5,4.5-4.5s4.5,2,4.5,4.5c0,0.2,0,0.3,0,0.5
		c0.7,0,1.2-0.1,1.5-0.1C-81.4,77-81.5,76.8-81.5,76.1z M-96.7,67.8c-0.7-0.1-1.3-0.1-1.4-0.8c-0.2-0.9-0.7-3.3-0.7-3.7
		c-0.1-0.4-0.3-0.9,0.2-1c0.4-0.1,2.2,0.2,2.9,0.8c0.3,0.3,1.1,1.1,1.4,1.4c0.3,0.4,3.4,3.8,4,4.6C-90.7,69-96.1,67.9-96.7,67.8z"/>
	<path id="XMLID_542_" class="st0" d="M-113,73c-2,0-3.7,1.6-3.7,3.7c0,2,1.6,3.7,3.7,3.7c2,0,3.7-1.6,3.7-3.7
		C-109.3,74.7-111,73-113,73z M-113,78.2c-0.8,0-1.5-0.7-1.5-1.5c0-0.8,0.7-1.5,1.5-1.5s1.5,0.7,1.5,1.5
		C-111.5,77.5-112.2,78.2-113,78.2z"/>
	<path id="XMLID_554_" class="st0" d="M-87.6,73c-2,0-3.7,1.6-3.7,3.7c0,2,1.6,3.7,3.7,3.7c2,0,3.7-1.6,3.7-3.7
		C-83.9,74.7-85.5,73-87.6,73z M-87.6,78.2c-0.8,0-1.5-0.7-1.5-1.5c0-0.8,0.7-1.5,1.5-1.5s1.5,0.7,1.5,1.5
		C-86.1,77.5-86.7,78.2-87.6,78.2z"/>
</g>
</svg>
